<svg xmlns="http://www.w3.org/2000/svg" width="960" height="520" viewBox="0 0 960 520">
  <defs>
    <style>text { font-family: -apple-system, BlinkMacSystemFont, 'Segoe UI', Roboto, sans-serif; }</style>
    <linearGradient id="hp-ok"  x1="0" y1="0" x2="1" y2="0"><stop offset="0%" stop-color="#3fb950"/><stop offset="100%" stop-color="#2a8a3a"/></linearGradient>
    <linearGradient id="hp-low" x1="0" y1="0" x2="1" y2="0"><stop offset="0%" stop-color="#d29922"/><stop offset="100%" stop-color="#a07010"/></linearGradient>
    <linearGradient id="hp-crit" x1="0" y1="0" x2="1" y2="0"><stop offset="0%" stop-color="#c84040"/><stop offset="100%" stop-color="#8a1010"/></linearGradient>
  </defs>

  <rect width="960" height="520" fill="#0e0c0a"/>

  <!-- Header -->
  <rect x="0" y="0" width="960" height="56" fill="#1a1612"/>
  <rect x="0" y="55" width="960" height="1" fill="#3d2f22"/>
  <text x="24" y="34" fill="#c8973c" font-size="18" font-weight="800">⚔  Cerberus Assembly Ambush</text>
  <rect x="260" y="20" width="44" height="18" rx="9" fill="#3a0f0f"/>
  <text x="282" y="33" fill="#c84040" font-size="11" font-weight="700" text-anchor="middle">HARD</text>
  <text x="320" y="33" fill="#7d6b55" font-size="12">Round 2</text>

  <rect x="560" y="17" width="120" height="22" rx="5" fill="#1a1612" stroke="#3d2f22" stroke-width="1"/>
  <text x="620" y="32" fill="#7d6b55" font-size="11" text-anchor="middle">🎲 Roll Initiative</text>
  <rect x="690" y="17" width="100" height="22" rx="5" fill="#1a1612" stroke="#3d2f22" stroke-width="1"/>
  <text x="740" y="32" fill="#7d6b55" font-size="11" text-anchor="middle">▶ Next Turn</text>
  <rect x="800" y="17" width="80" height="22" rx="5" fill="#251e18" stroke="#c8973c" stroke-width="1"/>
  <text x="840" y="32" fill="#c8973c" font-size="11" text-anchor="middle">+ Add</text>

  <!-- Active turn indicator bar -->
  <rect x="0" y="56" width="960" height="2" fill="#c8973c" opacity="0.4"/>

  <!-- ── Row 1: Caleb (player, active turn) ── -->
  <rect x="12" y="70" width="936" height="62" rx="6" fill="#201800"/>
  <rect x="12" y="70" width="4" height="62" rx="2" fill="#f0c040"/>
  <text x="30" y="97" fill="#c8973c" font-size="20" font-weight="800">24</text>
  <text x="30" y="113" fill="#7d6b55" font-size="10">INIT</text>
  <text x="72" y="93" fill="#c8973c" font-size="15" font-weight="700">🧙 Caleb Widogast</text>
  <text x="72" y="111" fill="#7d6b55" font-size="11">Human Wizard · Level 9 · Player</text>
  <!-- HP bar 52/64 = 81% -->
  <text x="340" y="93" fill="#d4c5a9" font-size="13" font-weight="600">52 / 64 HP</text>
  <rect x="340" y="100" width="160" height="6" rx="3" fill="#251e18"/>
  <rect x="340" y="100" width="130" height="6" rx="3" fill="url(#hp-ok)"/>
  <text x="510" y="106" fill="#7d6b55" font-size="10">81%</text>
  <text x="560" y="97" fill="#d4c5a9" font-size="12">AC 15</text>
  <!-- ACTIVE TURN badge -->
  <rect x="620" y="82" width="80" height="18" rx="9" fill="#3a2a00"/>
  <text x="660" y="95" fill="#f0c040" font-size="10" font-weight="700" text-anchor="middle">ACTIVE TURN</text>
  <rect x="870" y="82" width="60" height="18" rx="4" fill="#1a1612" stroke="#3d2f22" stroke-width="1"/>
  <text x="900" y="95" fill="#7d6b55" font-size="11" text-anchor="middle">Edit HP</text>

  <!-- ── Row 2: Assembly Mage A ── -->
  <rect x="12" y="142" width="936" height="62" rx="6" fill="#1a1612"/>
  <rect x="12" y="142" width="4" height="62" rx="2" fill="#3d2f22"/>
  <text x="30" y="169" fill="#d4c5a9" font-size="20" font-weight="800">21</text>
  <text x="30" y="185" fill="#7d6b55" font-size="10">INIT</text>
  <text x="72" y="165" fill="#d4c5a9" font-size="15" font-weight="700">👹 Assembly Mage A</text>
  <text x="72" y="183" fill="#7d6b55" font-size="11">Cerberus Assembly · CR 1 · ATK +5 · DMG 3d6</text>
  <!-- HP bar 8/22 = 36% LOW -->
  <text x="340" y="165" fill="#d29922" font-size="13" font-weight="600">8 / 22 HP</text>
  <rect x="340" y="172" width="160" height="6" rx="3" fill="#251e18"/>
  <rect x="340" y="172" width="58" height="6" rx="3" fill="url(#hp-low)"/>
  <text x="510" y="178" fill="#7d6b55" font-size="10">36%</text>
  <text x="560" y="169" fill="#d4c5a9" font-size="12">AC 13</text>
  <!-- Condition: Blinded -->
  <rect x="620" y="155" width="56" height="17" rx="8" fill="#2a1a0a" stroke="#3d2f22" stroke-width="1"/>
  <text x="648" y="167" fill="#d29922" font-size="10" text-anchor="middle">Blinded</text>
  <rect x="870" y="154" width="60" height="18" rx="4" fill="#1a1612" stroke="#3d2f22" stroke-width="1"/>
  <text x="900" y="167" fill="#7d6b55" font-size="11" text-anchor="middle">Edit HP</text>

  <!-- ── Row 3: Nott / Veth (player) ── -->
  <rect x="12" y="214" width="936" height="62" rx="6" fill="#1a1612"/>
  <rect x="12" y="214" width="4" height="62" rx="2" fill="#3d2f22"/>
  <text x="30" y="241" fill="#d4c5a9" font-size="20" font-weight="800">19</text>
  <text x="30" y="257" fill="#7d6b55" font-size="10">INIT</text>
  <text x="72" y="237" fill="#c8973c" font-size="15" font-weight="700">🧙 Veth Brenatto</text>
  <text x="72" y="255" fill="#7d6b55" font-size="11">Goblin Rogue · Level 9 · Player</text>
  <!-- HP 61/64 = 95% -->
  <text x="340" y="237" fill="#d4c5a9" font-size="13" font-weight="600">61 / 64 HP</text>
  <rect x="340" y="244" width="160" height="6" rx="3" fill="#251e18"/>
  <rect x="340" y="244" width="152" height="6" rx="3" fill="url(#hp-ok)"/>
  <text x="510" y="250" fill="#7d6b55" font-size="10">95%</text>
  <text x="560" y="241" fill="#d4c5a9" font-size="12">AC 17</text>
  <rect x="870" y="226" width="60" height="18" rx="4" fill="#1a1612" stroke="#3d2f22" stroke-width="1"/>
  <text x="900" y="239" fill="#7d6b55" font-size="11" text-anchor="middle">Edit HP</text>

  <!-- ── Row 4: Assembly Mage B ── -->
  <rect x="12" y="286" width="936" height="62" rx="6" fill="#1a1612"/>
  <rect x="12" y="286" width="4" height="62" rx="2" fill="#3d2f22"/>
  <text x="30" y="313" fill="#d4c5a9" font-size="20" font-weight="800">17</text>
  <text x="30" y="329" fill="#7d6b55" font-size="10">INIT</text>
  <text x="72" y="309" fill="#d4c5a9" font-size="15" font-weight="700">👹 Assembly Mage B</text>
  <text x="72" y="327" fill="#7d6b55" font-size="11">Cerberus Assembly · CR 1 · ATK +5 · DMG 3d6</text>
  <!-- HP 22/22 = 100% -->
  <text x="340" y="309" fill="#d4c5a9" font-size="13" font-weight="600">22 / 22 HP</text>
  <rect x="340" y="316" width="160" height="6" rx="3" fill="#251e18"/>
  <rect x="340" y="316" width="160" height="6" rx="3" fill="url(#hp-ok)"/>
  <text x="560" y="313" fill="#d4c5a9" font-size="12">AC 13</text>
  <rect x="870" y="298" width="60" height="18" rx="4" fill="#1a1612" stroke="#3d2f22" stroke-width="1"/>
  <text x="900" y="311" fill="#7d6b55" font-size="11" text-anchor="middle">Edit HP</text>

  <!-- ── Row 5: Fjord (player) ── -->
  <rect x="12" y="358" width="936" height="62" rx="6" fill="#1a1612"/>
  <rect x="12" y="358" width="4" height="62" rx="2" fill="#3d2f22"/>
  <text x="30" y="385" fill="#d4c5a9" font-size="20" font-weight="800">14</text>
  <text x="30" y="401" fill="#7d6b55" font-size="10">INIT</text>
  <text x="72" y="381" fill="#c8973c" font-size="15" font-weight="700">🧙 Fjord Stone</text>
  <text x="72" y="399" fill="#7d6b55" font-size="11">Half-Orc Warlock · Level 9 · Player</text>
  <!-- HP 38/72 = 53% LOW -->
  <text x="340" y="381" fill="#d29922" font-size="13" font-weight="600">38 / 72 HP</text>
  <rect x="340" y="388" width="160" height="6" rx="3" fill="#251e18"/>
  <rect x="340" y="388" width="85" height="6" rx="3" fill="url(#hp-low)"/>
  <text x="510" y="394" fill="#7d6b55" font-size="10">53%</text>
  <text x="560" y="385" fill="#d4c5a9" font-size="12">AC 16</text>
  <!-- Conditions: Frightened -->
  <rect x="620" y="371" width="68" height="17" rx="8" fill="#2a1a0a" stroke="#3d2f22" stroke-width="1"/>
  <text x="654" y="383" fill="#d29922" font-size="10" text-anchor="middle">Frightened</text>
  <rect x="870" y="370" width="60" height="18" rx="4" fill="#1a1612" stroke="#3d2f22" stroke-width="1"/>
  <text x="900" y="383" fill="#7d6b55" font-size="11" text-anchor="middle">Edit HP</text>

  <!-- ── Row 6: Assembly Assassin ── DEAD -->
  <rect x="12" y="430" width="936" height="62" rx="6" fill="#1a1612" opacity="0.35"/>
  <rect x="12" y="430" width="4" height="62" rx="2" fill="#3d2f22" opacity="0.35"/>
  <text x="30" y="457" fill="#7d6b55" font-size="20" font-weight="800">11</text>
  <text x="30" y="473" fill="#7d6b55" font-size="10">INIT</text>
  <text x="72" y="453" fill="#7d6b55" font-size="15" font-weight="700" text-decoration="line-through">👹 Myriad Assassin</text>
  <text x="72" y="471" fill="#7d6b55" font-size="11">CR 3 · Defeated</text>
  <!-- HP 0/58 -->
  <text x="340" y="453" fill="#c84040" font-size="13" font-weight="600">0 / 58 HP</text>
  <rect x="340" y="460" width="160" height="6" rx="3" fill="#251e18"/>
  <text x="560" y="457" fill="#7d6b55" font-size="12">AC 15</text>
  <rect x="620" y="443" width="44" height="17" rx="8" fill="#2a0a0a" stroke="#3d2f22" stroke-width="1"/>
  <text x="642" y="455" fill="#c84040" font-size="10" text-anchor="middle">Dead</text>

  <!-- Footer info -->
  <rect x="0" y="492" width="960" height="28" fill="#1a1612"/>
  <text x="24" y="511" fill="#7d6b55" font-size="11">Est. 2,400 XP · Party of 4 Level 9 · Hard threshold · 1 enemy defeated · Combat music playing</text>
  <rect x="760" y="499" width="90" height="14" rx="7" fill="#1a0a2a"/>
  <text x="805" y="510" fill="#8b4c9e" font-size="10" text-anchor="middle">♪ Combat</text>
</svg>
